<svg xmlns="http://www.w3.org/2000/svg" xmlns:xlink="http://www.w3.org/1999/xlink" version="1.1" x="0px" y="0px" viewBox="0 0 100 125" enable-background="new 0 0 100 100" xml:space="preserve"><path d="M71.657-374.193c-4.096-5.541-12.549-4.684-18.611-3.133c-0.324-2.114-2.309-13.477-7.733-15.827  c0,0-6.984-0.799-5.787,4.989c0,0,9.58,4.79,6.586,13.172c-29.736-6.187-19.159,20.956-19.159,20.956  c10.178,39.117,21.69,30.137,21.69,30.137c10.625,3.739,13.635-3.326,13.635-3.326c6.786,0.067,8.182-3.659,8.182-3.659  C79.641-351.441,71.657-374.193,71.657-374.193z"/><path fill-rule="evenodd" clip-rule="evenodd" d="M14.366-207.412c0,0-14.541-12.303-1.808-21.691c0,0,11.571-2.605,8.582,11.852  c0,0,8.161-8.548,17.459,15.746c0,0,8.731-0.322,6.437-8.54c0,0-26.036-19.723,0.51-24.481c0,0-0.443-8.122-6.78-10.406  c0,0-9.039-9.138,3.616-13.544c0,0,17.762-6.683,12.828,22.12c0,0,4.089-1.792,6.32,6.961c0,0,8.05,0.854-0.61-17.309  c0,0-10.714-23.212,18.97-14.936c0,0,2.3-5.893,9.646-1.784c0,0,8.449,7.663-2.415,12.629c0,0,2.226,8.728-0.452,12.202  c0,0,9.529,7.44,1.542,12.299c0,0-3.03,2.875-8.385-1.488c0,0-8.009,14.218-16.102,14.546c0,0,2.446,2.648,3.556,5.339  c1.365,3.313-2.558,7.614-9.049,5.281c0,0-0.808,4.367-3.647,5.597c0,0,2.978,12.14-7.506,16.371c0,0-9.102,5.323-12.47-9.105  C34.609-189.753,14.15-186.843,14.366-207.412z"/><path d="M48.36-75.199c-0.309-0.195-0.617-0.391-0.913-0.612c-3.374-2.531-5.868-6.769-7.705-11.416  c-9.42-0.068-22.584,5.312-34.73,29.423C26.277-72.494,39.965-75.706,48.36-75.199z"/><path d="M90.265-119.928c-5.911,0.206-28.589,2.226-35.583,20.898c5.039,4.915,6.703,9.485,7.249,12.129  C68.737-110.114,85.475-118.084,90.265-119.928z"/><path d="M60.053-70.044l-0.068,1.239L59.24-69.8c-0.122-0.161-12.383-15.572-53.115,12.325c6.31-2.062,30.688-9.676,44.023-8.8  c5.715,1.188,12.152,5.964,12.152,5.964s4.443-14.188,6.729-19.402c3.037-8.015,10.607-25.917,22.104-39.576  C86.721-117.717,62.085-107.286,60.053-70.044z"/><path d="M51.078-74.884c0.722,0.127,1.396,0.28,2.019,0.455c3.222,0.908,5.154,2.36,6.119,3.274c0.311-4.638,0.974-8.854,1.9-12.693  c0.06-0.25,0.12-0.502,0.183-0.749l-0.008-0.001c0.002-0.096,0.041-6.317-6.973-13.411c-3.773-3.816-9.582-7.882-18.546-11.383  c0.263,2.809,1.455,13.379,5.017,22.195C43.093-81.493,46.394-76.538,51.078-74.884z"/><g><path d="M44.605,48.961c0.064,0.017,0.417,0.118,0.935,0.321c0.039-1.998,0.627-4.304,1.805-6.921   c0.009-0.017,0.333-0.794,0.693-2.273c-2.722-7.6-7.924-16.372-17.809-21.276c0.901,15.202,4.299,24.202,8.134,29.521   C40.432,48.344,42.531,48.553,44.605,48.961z"/><path d="M48.515,37.654c0.362-2.329,0.608-5.499,0.359-9.483l-0.068-1.099l1.001,0.459c0.313,0.143,6.623,3.188,9.919,13.809   c1.181-0.881,2.686-1.692,4.537-2.294c-7.332-14.7-23.94-19.013-31.241-20.221C41.062,23.589,45.773,30.902,48.515,37.654z"/><path d="M48.549,58.437c0.287-0.476,0.619-0.881,0.978-1.239c0.017-0.016,0.031-0.032,0.046-0.047   c-0.105,0.003-0.212,0.006-0.321,0.01c-8.258,0.237-28.945,1.885-43.704,11.906c10.473,5.247,19.521,7.916,26.9,7.916   c12.648,0,15.925-7.744,16.059-8.073c0.117-0.195,0.21-0.38,0.319-0.573C47.194,64.188,47.087,60.855,48.549,58.437z"/><path d="M46.973,55.936c0.697-0.036,1.35-0.064,1.939-0.083c-0.083-0.05-0.165-0.106-0.245-0.16   c-0.785-0.519-1.541-1.216-2.119-2.17c-0.494-0.819-0.788-1.751-0.927-2.771c-0.77-0.352-1.302-0.505-1.318-0.509   c-1.607-0.314-3.26-0.501-4.905-0.566c-0.317-0.012-0.633-0.02-0.95-0.022c-0.094-0.002-0.191-0.008-0.285-0.008   c-0.205,0-0.404,0.013-0.607,0.017C22.598,49.956,11.61,61.033,7.083,66.513c12.744-7.669,28.868-9.867,38.198-10.479   C45.876,55.994,46.436,55.962,46.973,55.936z"/><path d="M65.601,52.104c-0.404,0.148-0.798,0.294-1.176,0.441c-0.61,0.233-1.185,0.465-1.727,0.688   c-2.002,0.834-3.531,1.576-4.522,2.089c-0.105,0.057-0.205,0.108-0.299,0.156c0.294,0.113,0.548,0.251,0.809,0.385   c0.274,0.141,0.529,0.29,0.769,0.449c1.543,1.023,2.433,2.396,2.928,3.621c0.912,2.262,0.753,4.413,0.747,4.503   c-0.021,0.143-0.054,0.27-0.076,0.411C63.976,64.945,64.903,65,65.822,65c15.297,0,25.968-13.841,28.63-17.672   C82.332,47.062,72.26,49.669,65.601,52.104z"/><path d="M61.121,47.479c0.014,0.134,0.172,2.285-0.74,4.547c-0.131,0.324-0.299,0.659-0.488,0.996   c1.308-0.599,2.939-1.294,4.86-2.008c0.308-0.114,0.627-0.229,0.949-0.343c0.283-0.102,0.574-0.203,0.868-0.305   c6.442-2.213,15.533-4.392,26.313-4.377c-8.523-4.368-15.936-6.61-22.03-6.61c-1.798,0-3.357,0.205-4.745,0.527   c-0.218,0.05-0.45,0.09-0.656,0.146c-0.222,0.061-0.417,0.135-0.628,0.2c-1.995,0.631-3.533,1.521-4.696,2.463   C60.519,44.176,60.864,45.745,61.121,47.479z"/><path d="M56.063,63.392c-0.028-0.356-0.062-0.693-0.111-1.013c-0.07-0.475-0.157-0.921-0.267-1.317   c-0.143-0.529-0.313-0.992-0.504-1.396c-0.262-0.558-0.55-0.991-0.837-1.336c-0.312-0.377-0.616-0.636-0.878-0.82   c-0.172-0.12-0.329-0.215-0.452-0.274c-0.075,0.001-0.146,0.006-0.224,0.008h-0.013c-0.087,0.001-0.166,0.008-0.254,0.008   l-0.405-0.004h-0.18c-0.004,0.003-0.16,0.021-0.407,0.032c-0.023,0.015-0.044,0.03-0.065,0.045   c-0.674,0.428-1.317,1.009-1.795,1.803c-1.114,1.852-1.104,4.432-0.009,7.664c0.097,0.284,0.19,0.567,0.304,0.862   c0.095,0.247,0.208,0.506,0.315,0.762c0.091,0.216,0.167,0.422,0.266,0.642c0.081,0.184,1.704,3.979,1.741,11.248   C55.53,72.19,56.325,66.865,56.063,63.392z"/><path d="M57.574,56.783c-0.805,0.158-1.647,0.282-2.543,0.356c0.448,0.461,0.909,1.061,1.305,1.882   c0.444,0.923,0.806,2.136,0.975,3.689c0.031,0.283,0.057,0.575,0.072,0.883c0.015,0.266,0.025,0.538,0.028,0.819   c0.043,3.873-1.032,9.505-4.411,17.646c2.424-1.934,6.719-6.582,8.524-16.084c0.041-0.217,0.077-0.442,0.116-0.662   c0.039-0.224,0.08-0.439,0.117-0.668c0.018-0.121,0.043-0.233,0.062-0.356C61.834,64.061,62.167,58.698,57.574,56.783z"/><path d="M48.776,42.304c-0.124,0.355-0.211,0.557-0.228,0.595c-1.227,2.726-1.796,5.056-1.707,6.979   c0.012,0.277,0.048,0.539,0.088,0.799c0.048,0.309,0.119,0.605,0.207,0.891c0.135,0.45,0.302,0.879,0.533,1.266   c0.771,1.28,1.973,2.015,3.034,2.436c0.307,0.12,0.594,0.211,0.865,0.286c0.095,0.026,0.179,0.045,0.269,0.066   c0.179,0.044,0.338,0.08,0.479,0.105c0.003-0.022,0.007-0.048,0.008-0.07c0.01-0.079,0.019-0.159,0.028-0.249   c0.415-3.731,1.588-17.273-2.067-24.775c0.065,4.222-0.403,7.368-0.874,9.416C49.178,41.076,48.942,41.831,48.776,42.304z"/><path d="M54.019,51.613c-0.091,1.372-0.197,2.531-0.29,3.385c-0.027,0.265-0.053,0.497-0.077,0.698   c-0.014,0.004-0.025,0.004-0.037,0.01c0.012-0.003,0.023-0.006,0.037-0.006c0.119-0.02,0.244-0.032,0.358-0.052   c0.169-0.035,0.331-0.077,0.492-0.119c0.545-0.14,1.035-0.321,1.475-0.538c4.17-2.053,3.855-7.107,3.837-7.364   c-0.21-1.409-0.477-2.714-0.782-3.933c-0.062-0.243-0.13-0.472-0.194-0.706c-0.066-0.251-0.135-0.498-0.208-0.739   c-1.872-6.318-4.866-9.925-6.969-11.793c2.46,5.409,2.71,13.269,2.477,18.958C54.105,50.194,54.062,50.929,54.019,51.613z"/></g><path fill-rule="evenodd" clip-rule="evenodd" d="M57.544,184.785c27.745-0.436,18.376-24.861,18.376-24.861  C43.853,163.091,57.544,184.785,57.544,184.785z"/><path fill-rule="evenodd" clip-rule="evenodd" d="M61.125,201.754c19.207-0.303,12.721-17.211,12.721-17.211  C51.647,186.735,61.125,201.754,61.125,201.754z"/><path fill-rule="evenodd" clip-rule="evenodd" d="M64.322,216.091c10.926-0.172,7.236-9.791,7.236-9.791  C58.93,207.547,64.322,216.091,64.322,216.091z"/><path fill-rule="evenodd" clip-rule="evenodd" d="M43.247,226.168c11.007,7.967,17.367-6.495,17.367-6.495  C52.197,211.674,43.247,226.168,43.247,226.168z"/><path fill-rule="evenodd" clip-rule="evenodd" d="M57.152,202.997c-17.57-12.358-22.819,7.192-22.819,7.192  C55.854,222.807,57.152,202.997,57.152,202.997z"/><path fill-rule="evenodd" clip-rule="evenodd" d="M51.391,186.545c-17.928-21.178-30.877,1.554-30.877,1.554  C43.293,210.888,51.391,186.545,51.391,186.545z"/><path fill-rule="evenodd" clip-rule="evenodd" d="M70.812,142.625c-23.24-0.074-18.979,10.505-18.979,10.505  C69.605,155.526,70.812,142.625,70.812,142.625z"/><path fill-rule="evenodd" clip-rule="evenodd" d="M41.086,159.165c-16.397-7.263-21.156,4.79-21.156,4.79  C42.225,170.514,41.086,159.165,41.086,159.165z"/><path fill-rule="evenodd" clip-rule="evenodd" d="M63.179,202.877h-2.121c-0.443,1.171,0.246,4.607,0.246,4.607  C54.1,191.8,59.26,186.098,59.26,186.098l-2.076-0.065c-0.813,1.646-0.719,4.611-0.719,4.611  c-10.243-25.744-4.951-35.889-4.951-35.889l-1.019-2.397c-1.26,1.96-2.162,8.106-2.162,8.106l-0.316,1.132  c-2.838-2.188-5.873-2.295-5.873-2.295l-0.261,1.986c6.341-2.495,12.866,28.362,12.866,28.362l-2.159-2.446l-0.658,1.981  c2.55,2.433,5.492,9.206,7.13,14.664c0.077,0.255-0.841-0.19-0.888,0.064c-0.118,0.658-0.27,1.351-0.27,1.351  c2.303,1.441,5.021,21.678,5.021,21.678l1.312-0.45C60.946,212.917,63.179,202.877,63.179,202.877z"/><text x="0" y="115" fill="#000000" font-size="5px" font-weight="bold" font-family="'Helvetica Neue', Helvetica, Arial-Unicode, Arial, Sans-serif">Created by Julia Soderberg</text><text x="0" y="120" fill="#000000" font-size="5px" font-weight="bold" font-family="'Helvetica Neue', Helvetica, Arial-Unicode, Arial, Sans-serif">from the Noun Project</text></svg>