<svg xmlns="http://www.w3.org/2000/svg" xmlns:xlink="http://www.w3.org/1999/xlink" version="1.1" x="0px" y="0px" viewBox="0 0 100 125" enable-background="new 0 0 100 100" xml:space="preserve"><g><g><g><path d="M31.412,87.959C16.848,87.959,5,76.111,5,61.547s11.848-26.412,26.412-26.412c14.563,0,26.412,11.848,26.412,26.412     S45.975,87.959,31.412,87.959z M31.412,39.22c-12.311,0-22.327,10.016-22.327,22.327s10.016,22.327,22.327,22.327     s22.326-10.016,22.326-22.327S43.723,39.22,31.412,39.22z"/></g><g><circle cx="28.366" cy="48.982" r="3.808"/></g><g><circle cx="20.37" cy="57.739" r="3.046"/></g><g><circle cx="40.36" cy="48.03" r="2.285"/></g><g><circle cx="19.227" cy="71.447" r="2.285"/></g><g><circle cx="36.077" cy="58.12" r="2.285"/></g><g><circle cx="28.747" cy="66.878" r="3.427"/></g><g><circle cx="45.501" cy="61.928" r="3.427"/></g><g><circle cx="39.98" cy="73.732" r="4.188"/></g></g><g><defs><path id="d" d="M45.205,11.624C30.9,12.066,19.649,23.902,19.843,38.156c3.28-1.634,6.942-2.625,10.845-2.745     c14.458-0.446,26.541,10.913,26.987,25.371c0.005,0.154-0.011,0.303-0.009,0.456c8.871-4.419,14.852-13.686,14.527-24.242     C71.746,22.537,59.664,11.178,45.205,11.624z"/></defs><clipPath id="c"><use xlink:href="#d" overflow="visible"/></clipPath><g clip-path="url(#c)"><g><path d="M45.997,64.132c-14.352,0-25.943-11.245-26.386-25.598c-0.217-7.051,2.324-13.766,7.156-18.906      c4.832-5.14,11.378-8.09,18.429-8.309c14.737-0.428,26.763,10.957,27.214,25.584c0.217,7.052-2.324,13.766-7.156,18.907      c-4.832,5.14-11.378,8.09-18.429,8.307C46.549,64.128,46.272,64.132,45.997,64.132z M46.026,15.393      c-0.233,0-0.468,0.004-0.703,0.011c-5.961,0.184-11.494,2.678-15.579,7.023c-4.084,4.345-6.233,10.021-6.049,15.981      c0.381,12.366,10.554,21.969,23.004,21.628c5.961-0.185,11.494-2.678,15.579-7.024c4.084-4.344,6.233-10.02,6.049-15.981      C67.953,24.897,58.158,15.393,46.026,15.393z"/></g><g><circle cx="42.579" cy="25.254" r="3.808"/></g><g><circle cx="34.857" cy="34.254" r="3.046"/></g><g><circle cx="54.538" cy="23.933" r="2.285"/></g><g><circle cx="34.138" cy="47.991" r="2.285"/></g><g><circle cx="50.568" cy="34.15" r="2.285"/></g><g><circle cx="43.512" cy="43.13" r="3.427"/></g><g><circle cx="60.105" cy="37.666" r="3.427"/></g><g><circle cx="54.95" cy="49.634" r="4.188"/></g></g></g><g><defs><path id="b" d="M71.309,35.501c-0.122,10.493-6.307,19.506-15.211,23.753c-0.364,7.343-3.704,13.889-8.822,18.496     c4.838,6.448,12.521,10.638,21.203,10.638C83.126,88.388,95,76.514,95,61.867C95,48.177,84.625,36.915,71.309,35.501z"/></defs><clipPath id="a"><use xlink:href="#b" overflow="visible"/></clipPath><g clip-path="url(#a)"><g><g><path d="M68.087,88.366c-14.564,0-26.412-11.848-26.412-26.411c0-14.564,11.848-26.412,26.412-26.412       c14.563,0,26.412,11.848,26.412,26.412C94.499,76.518,82.65,88.366,68.087,88.366z M68.087,39.628       c-12.311,0-22.327,10.016-22.327,22.327c0,12.31,10.016,22.326,22.327,22.326s22.326-10.016,22.326-22.326       C90.414,49.644,80.398,39.628,68.087,39.628z"/></g><g><circle cx="65.041" cy="49.389" r="3.808"/></g><g><circle cx="57.045" cy="58.147" r="3.046"/></g><g><circle cx="77.035" cy="48.437" r="2.285"/></g><g><circle cx="55.902" cy="71.855" r="2.285"/></g><g><circle cx="72.751" cy="58.528" r="2.285"/></g><g><circle cx="65.421" cy="67.286" r="3.427"/></g><g><circle cx="82.175" cy="62.335" r="3.427"/></g><g><circle cx="76.654" cy="74.139" r="4.188"/></g></g></g></g></g><text x="0" y="115" fill="#000000" font-size="5px" font-weight="bold" font-family="'Helvetica Neue', Helvetica, Arial-Unicode, Arial, Sans-serif">Created by Nathan Thomson</text><text x="0" y="120" fill="#000000" font-size="5px" font-weight="bold" font-family="'Helvetica Neue', Helvetica, Arial-Unicode, Arial, Sans-serif">from the Noun Project</text></svg>